<?xml version="1.0" encoding="utf-8"?>
<!-- Generator: Adobe Illustrator 19.1.0, SVG Export Plug-In . SVG Version: 6.00 Build 0)  -->
<svg version="1.1" id="Identity" xmlns="http://www.w3.org/2000/svg" xmlns:xlink="http://www.w3.org/1999/xlink" x="0px" y="0px"
	 viewBox="0 0 380.9 110.6" style="enable-background:new 0 0 380.9 110.6;" xml:space="preserve">
<style type="text/css">
	.st0{fill:#FFFFFF;}
</style>
<g>
	<g>
		<path class="st0" d="M62.4,17.3c-4,0-5.9-2.7-5.9-6.5V0h2.1v10.8c0,2.6,1,4.5,3.8,4.5c2.8,0,3.8-1.9,3.8-4.5V0h2.1v10.8
			C68.4,14.7,66.4,17.3,62.4,17.3z"/>
	</g>
	<g>
		<path class="st0" d="M10.1,15.5c-1,1-2.6,1.5-4.3,1.5H0.2V0h5.7C7.5,0,9,0.5,10,1.5C10.6,2.2,11,3.2,11,4.4c0,1.6-0.9,3.2-2.4,3.8
			c1.8,0.6,2.8,2.3,2.8,4.1C11.4,13.6,10.9,14.7,10.1,15.5z M5.8,1.9H2.3v5.3h3.6c1.8,0,3-0.8,3-2.7C8.8,2.8,7.4,1.9,5.8,1.9z
			 M5.9,9.1H2.3V15h3.6c1.9,0,3.3-0.8,3.3-2.9C9.2,10.2,7.7,9.1,5.9,9.1z"/>
	</g>
	<g>
		<path class="st0" d="M113.6,17v-1.8h3.8V1.8h-3.8V0h9.7v1.8h-3.8v13.5h3.8V17H113.6z"/>
	</g>
	<g>
		<path class="st0" d="M0.2,63.8v-17h11.3v2H2.3V54h6.9v2H2.3v5.9h9.1v2H0.2z"/>
	</g>
	<g>
		<path class="st0" d="M113.6,63.8v-17h2.1v15h8.8v2H113.6z"/>
	</g>
	<g>
		<path class="st0" d="M9.2,110.6L6,103.5H2.1v7.1H0v-17h5.8c2,0,3.4,0.6,4.3,1.5c0.8,0.9,1.3,2,1.3,3.5s-0.5,2.5-1.3,3.4
			c-0.5,0.5-1.2,0.9-2,1.2l3.4,7.5H9.2z M5.8,95.5H2.1v6h3.7c2,0,3.5-0.8,3.5-3S7.8,95.5,5.8,95.5z"/>
	</g>
	<g>
		<path class="st0" d="M123.7,108.1c-1,1.6-2.8,2.6-5.4,2.6h-5.1v-17h5.1c2.7,0,4.5,1.1,5.4,2.6c1,1.5,1.2,3.5,1.2,5.8
			C124.9,104.4,124.6,106.6,123.7,108.1z M121.4,96.8c-0.6-0.7-1.7-1.1-3.1-1.1h-2.9v13.1h2.9c1.5,0,2.6-0.5,3.2-1.2
			c1.1-1.2,1.2-3.3,1.2-5.4C122.7,99.9,122.6,98,121.4,96.8z"/>
	</g>
</g>
<g>
	<path class="st0" d="M174.4,46.9c-1.6,1.6-4.1,2.3-6.7,2.3c-2.2,0-4.6-0.6-6.4-2.2c-1.3-1.1-2.2-2.9-2.2-5h4c0,1,0.5,2,1.1,2.6
		c0.9,0.9,2.3,1.1,3.6,1.1c1.5,0,2.9-0.3,3.7-1.1c0.5-0.5,0.8-1,0.8-2c0-1.6-1.2-2.3-2.5-2.5c-1.4-0.3-3.3-0.3-4.7-0.6
		c-2.9-0.5-5.4-2.4-5.4-5.9c0-1.7,0.8-3.1,1.9-4.2c1.4-1.4,3.8-2.2,6.2-2.2c2.3,0,4.5,0.7,5.9,2.1c1.3,1.2,2.1,2.8,2.2,4.5h-4
		c0-0.8-0.4-1.6-0.9-2.1c-0.7-0.7-2.1-1.1-3.2-1.1c-1.2,0-2.6,0.3-3.5,1.2c-0.4,0.5-0.7,1-0.7,1.8c0,1.4,0.9,2.1,2.2,2.3
		c1.4,0.2,3.2,0.4,4.6,0.5c3.2,0.5,5.8,2.5,5.8,6.1C176.2,44.4,175.5,45.8,174.4,46.9z"/>
	<path class="st0" d="M187.7,31.1v17.7h-3.9V31.1h-6.3v-3.6H194v3.6H187.7z"/>
	<path class="st0" d="M210.4,46.8c-1.6,1.6-3.8,2.4-6.1,2.4c-2.3,0-4.5-0.8-6.1-2.4c-2.3-2.3-2.7-5.1-2.7-8.6c0-3.5,0.4-6.3,2.7-8.6
		c1.6-1.6,3.8-2.4,6.1-2.4c2.3,0,4.5,0.8,6.1,2.4c2.3,2.3,2.7,5.2,2.7,8.6C213.1,41.6,212.7,44.4,210.4,46.8z M207.6,32
		c-0.8-0.9-2.1-1.4-3.4-1.4c-1.2,0-2.5,0.5-3.4,1.4c-1.5,1.5-1.5,4.2-1.5,6.1c0,1.9,0.1,4.6,1.5,6.1c0.8,0.9,2.1,1.4,3.4,1.4
		c1.2,0,2.5-0.5,3.4-1.4c1.5-1.5,1.5-4.1,1.5-6.1C209.2,36.2,209.1,33.6,207.6,32z"/>
	<path class="st0" d="M230.6,48.8l-9.2-14.6v14.6h-3.8V27.5h4.1l9.1,14.4V27.5h3.8v21.3H230.6z"/>
	<path class="st0" d="M249.1,40.6v8.2h-3.9v-8.2l-7.4-13.1h4.2l5.2,9.2l5.2-9.2h4L249.1,40.6z"/>
	<path class="st0" d="M266.1,48.8V27.5h3.9v21.3H266.1z"/>
	<path class="st0" d="M289.4,46.9c-1.6,1.6-4.1,2.3-6.7,2.3c-2.2,0-4.6-0.6-6.4-2.2c-1.3-1.1-2.2-2.9-2.2-5h4c0,1,0.5,2,1.1,2.6
		c0.9,0.9,2.3,1.1,3.6,1.1c1.5,0,2.9-0.3,3.7-1.1c0.5-0.5,0.8-1,0.8-2c0-1.6-1.2-2.3-2.5-2.5c-1.4-0.3-3.3-0.3-4.7-0.6
		c-2.9-0.5-5.4-2.4-5.4-5.9c0-1.7,0.8-3.1,1.9-4.2c1.4-1.4,3.8-2.2,6.2-2.2c2.3,0,4.5,0.7,5.9,2.1c1.3,1.2,2.1,2.8,2.2,4.5h-4
		c0-0.8-0.4-1.6-0.9-2.1c-0.7-0.7-2.1-1.1-3.2-1.1c-1.2,0-2.6,0.3-3.4,1.2c-0.5,0.5-0.7,1-0.7,1.8c0,1.4,0.9,2.1,2.2,2.3
		c1.3,0.2,3.2,0.4,4.6,0.5c3.2,0.5,5.8,2.5,5.8,6.1C291.2,44.4,290.5,45.8,289.4,46.9z"/>
	<path class="st0" d="M295.4,48.8V27.5h3.9v17.6h9.9v3.7H295.4z"/>
	<path class="st0" d="M325.3,48.8l-1.4-4.1h-8.5l-1.4,4.1h-3.9l7.5-21.3h4.2l7.5,21.3H325.3z M319.7,32.2l-3,9h6.1L319.7,32.2z"/>
	<path class="st0" d="M345.6,48.8l-9.2-14.6v14.6h-3.8V27.5h4.1l9.1,14.4V27.5h3.8v21.3H345.6z"/>
	<path class="st0" d="M369.6,46.5c-1.4,1.5-3.5,2.3-6,2.3h-8.3V27.5h8.3c2.4,0,4.6,0.8,6,2.3c2.2,2.2,2.5,5.4,2.5,8.3
		C372.1,41.1,371.8,44.2,369.6,46.5z M366.6,32.2c-0.7-0.7-1.8-1.2-3-1.2h-4.4v14.3h4.4c1.2,0,2.3-0.5,3-1.2c1.5-1.5,1.5-4,1.5-6
		S368.1,33.7,366.6,32.2z"/>
	<path class="st0" d="M173.4,83.1L172,79h-8.5l-1.4,4.1h-3.9l7.5-21.3h4.2l7.5,21.3H173.4z M167.8,66.6l-3,9h6.1L167.8,66.6z"/>
	<path class="st0" d="M192.8,83.1l-3.5-8h-4.7v8h-3.9V61.9h9c5.1,0,7.4,3.2,7.4,6.6c0,2.8-1.6,5.1-3.9,6l3.9,8.7H192.8z M189.6,65.2
		h-5.1v6.4h5.2c2.2,0,3.5-1.1,3.5-3.1C193.1,66.7,191.8,65.2,189.6,65.2z"/>
	<path class="st0" d="M208.7,65.5v17.7h-3.9V65.5h-6.3v-3.6H215v3.6H208.7z"/>
	<path class="st0" d="M231.6,81.2c-1.6,1.6-4.1,2.3-6.7,2.3c-2.2,0-4.6-0.6-6.4-2.2c-1.3-1.1-2.2-2.9-2.2-5h4c0,1,0.5,2,1.1,2.6
		c0.9,0.9,2.3,1.1,3.6,1.1c1.5,0,2.9-0.3,3.7-1.1c0.5-0.5,0.8-1,0.8-2c0-1.6-1.2-2.3-2.5-2.5c-1.4-0.3-3.3-0.3-4.7-0.6
		c-2.9-0.5-5.4-2.4-5.4-5.9c0-1.7,0.8-3.1,1.9-4.2c1.4-1.4,3.8-2.2,6.2-2.2c2.3,0,4.5,0.7,5.9,2.1c1.3,1.2,2.1,2.8,2.2,4.5h-4
		c0-0.8-0.4-1.6-0.9-2.1c-0.7-0.7-2.1-1.1-3.2-1.1c-1.2,0-2.6,0.3-3.5,1.2c-0.5,0.5-0.7,1-0.7,1.8c0,1.4,0.9,2.1,2.2,2.3
		c1.3,0.2,3.2,0.4,4.6,0.5c3.2,0.5,5.8,2.5,5.8,6.1C233.3,78.8,232.6,80.2,231.6,81.2z"/>
	<path class="st0" d="M258.7,81.7c-1.6,1.3-3.6,1.4-5.7,1.4h-8.5V61.9h8.5c1.7,0,3.5,0.2,4.9,1.2c1.6,1,2.5,2.8,2.5,4.6
		c0,1.7-0.8,3.7-2.6,4.5c2,0.9,3.1,2.8,3.1,4.8C260.9,78.8,260.2,80.5,258.7,81.7z M253.2,65.2h-4.8v5.3h4.9c1.7,0,3.2-0.6,3.2-2.6
		C256.5,65.8,254.9,65.2,253.2,65.2z M253.3,73.8h-4.9v5.9h4.8c1.8,0,3.8-0.7,3.8-2.8C256.9,74.6,255.3,73.8,253.3,73.8z"/>
	<path class="st0" d="M277.7,83.1l-1.4-4.1h-8.5l-1.4,4.1h-3.9l7.5-21.3h4.2l7.5,21.3H277.7z M272.1,66.6l-3,9h6.1L272.1,66.6z"/>
	<path class="st0" d="M298,83.1l-9.2-14.6v14.6H285V61.9h4.1l9.1,14.4V61.9h3.8v21.3H298z"/>
	<path class="st0" d="M321,83.1l-5.8-10l-3.7,4.3v5.8h-3.9V61.9h3.9v9.8l8.5-9.8h4.7l-6.8,8l7.6,13.2H321z"/>
</g>
<g>
	<path class="st0" d="M81.9,105H42.9V40.2h39.1V105z M48.2,99.7h28.4V45.5H48.2V99.7z"/>
</g>
</svg>
