<?xml version="1.0" encoding="utf-8"?>
<!-- Generator: Adobe Illustrator 19.1.0, SVG Export Plug-In . SVG Version: 6.00 Build 0)  -->
<svg version="1.1" id="Identity" xmlns="http://www.w3.org/2000/svg" xmlns:xlink="http://www.w3.org/1999/xlink" x="0px" y="0px"
	 viewBox="0 0 402.3 110.9" style="enable-background:new 0 0 402.3 110.9;" xml:space="preserve">
<style type="text/css">
	.st0{fill:#FFFFFF;}
</style>
<g>
	<g>
		<path class="st0" d="M62.2,17.4c-4,0-5.9-2.7-5.9-6.5V0.1h2.1V11c0,2.6,1,4.5,3.8,4.5c2.8,0,3.8-1.9,3.8-4.5V0.1h2.1v10.8
			C68.2,14.8,66.2,17.4,62.2,17.4z"/>
	</g>
	<g>
		<path class="st0" d="M10,15.6c-1,1-2.6,1.5-4.3,1.5H0v-17h5.7c1.6,0,3.1,0.5,4.1,1.5c0.6,0.7,1.1,1.7,1.1,2.9
			c0,1.6-0.9,3.2-2.4,3.8c1.8,0.6,2.8,2.3,2.8,4.1C11.2,13.7,10.7,14.8,10,15.6z M5.6,2H2.1v5.3h3.6c1.8,0,3-0.8,3-2.7
			C8.7,2.9,7.2,2,5.6,2z M5.7,9.2H2.1v5.9h3.6c1.9,0,3.3-0.8,3.3-2.9C9.1,10.4,7.6,9.2,5.7,9.2z"/>
	</g>
	<g>
		<path class="st0" d="M113.4,17.1v-1.8h3.8V1.9h-3.8V0.1h9.7v1.8h-3.8v13.5h3.8v1.8H113.4z"/>
	</g>
	<g>
		<path class="st0" d="M0,63.9v-17h11.3v2H2.1v5.2H9v2H2.1V62h9.1v2H0z"/>
	</g>
	<g>
		<path class="st0" d="M113.4,63.9v-17h2.1v15h8.8v2H113.4z"/>
	</g>
	<g>
		<path class="st0" d="M9.1,110.7l-3.2-7.1H2v7.1h-2.1v-17h5.8c2,0,3.4,0.6,4.3,1.5c0.8,0.9,1.3,2,1.3,3.5c0,1.5-0.5,2.5-1.3,3.4
			c-0.5,0.5-1.2,0.9-2,1.2l3.4,7.5H9.1z M5.7,95.7H2v6h3.7c2,0,3.5-0.8,3.5-3C9.1,96.5,7.7,95.7,5.7,95.7z"/>
	</g>
	<g>
		<path class="st0" d="M123.5,108.2c-1,1.6-2.8,2.6-5.4,2.6H113v-17h5.1c2.7,0,4.5,1.1,5.4,2.6c1,1.5,1.2,3.5,1.2,5.8
			C124.7,104.6,124.5,106.7,123.5,108.2z M121.2,96.9c-0.6-0.7-1.7-1.1-3.1-1.1h-2.9v13.1h2.9c1.5,0,2.6-0.5,3.2-1.2
			c1.1-1.2,1.2-3.3,1.2-5.4C122.5,100.1,122.4,98.1,121.2,96.9z"/>
	</g>
</g>
<g>
	<path class="st0" d="M174.8,29.5c-1.4,1.5-3.5,2.3-6,2.3h-8.3V10.6h8.3c2.4,0,4.6,0.8,6,2.3c2.2,2.2,2.5,5.4,2.5,8.3
		C177.3,24.1,177,27.3,174.8,29.5z M171.9,15.2c-0.7-0.7-1.8-1.2-3-1.2h-4.4v14.3h4.4c1.2,0,2.3-0.5,3-1.2c1.5-1.5,1.5-4,1.5-6
		S173.4,16.7,171.9,15.2z"/>
	<path class="st0" d="M195.6,29.8c-1.6,1.6-3.8,2.4-6.1,2.4c-2.3,0-4.5-0.8-6.1-2.4c-2.3-2.3-2.7-5.1-2.7-8.6c0-3.5,0.4-6.3,2.7-8.6
		c1.6-1.6,3.8-2.4,6.1-2.4c2.3,0,4.5,0.8,6.1,2.4c2.3,2.3,2.7,5.2,2.7,8.6C198.3,24.7,197.9,27.5,195.6,29.8z M192.8,15.1
		c-0.8-0.9-2.1-1.4-3.4-1.4c-1.2,0-2.5,0.5-3.4,1.4c-1.5,1.5-1.5,4.2-1.5,6.1c0,1.9,0.1,4.6,1.5,6.1c0.8,0.9,2.1,1.4,3.4,1.4
		c1.2,0,2.5-0.5,3.4-1.4c1.5-1.5,1.5-4.1,1.5-6.1C194.3,19.3,194.3,16.6,192.8,15.1z"/>
	<path class="st0" d="M214.9,31.8l-3.5-8h-4.7v8h-3.9V10.6h9c5.1,0,7.4,3.2,7.4,6.6c0,2.8-1.6,5.1-3.9,6l3.9,8.7H214.9z M211.7,13.9
		h-5.1v6.4h5.2c2.2,0,3.5-1.1,3.5-3.1C215.2,15.4,213.9,13.9,211.7,13.9z"/>
	<path class="st0" d="M236.7,29.7c-1.6,1.6-3.8,2.5-6.1,2.5s-4.4-0.8-6-2.4c-2.3-2.3-2.6-5.2-2.6-8.6c0-3.5,0.3-6.3,2.6-8.6
		c1.6-1.6,3.8-2.4,6-2.4s4.5,0.8,6.1,2.5c1.2,1.3,1.9,2.9,2,4.6h-4c-0.1-0.9-0.4-1.6-1-2.2c-0.7-0.9-1.9-1.3-3.2-1.3
		c-1.2,0-2.4,0.5-3.3,1.4c-1.5,1.5-1.5,4.2-1.5,6.1c0,1.9,0,4.6,1.5,6.1c0.8,0.9,2,1.4,3.3,1.4c1.3,0,2.5-0.5,3.2-1.3
		c0.5-0.7,0.9-1.4,1-2.3h4C238.6,26.7,238,28.4,236.7,29.7z"/>
	<path class="st0" d="M255.5,31.8v-9.3h-8.7v9.3h-3.9V10.6h3.9v8.3h8.7v-8.3h3.9v21.3H255.5z"/>
	<path class="st0" d="M265.1,31.8V10.6h15.1v3.5h-11.3V19h9.9v3.5h-9.9v5.8h11.3v3.5H265.1z"/>
	<path class="st0" d="M298.2,29.9c-1.6,1.6-4.1,2.3-6.7,2.3c-2.2,0-4.6-0.6-6.4-2.2c-1.3-1.1-2.2-2.9-2.2-5h4c0,1,0.5,2,1.1,2.6
		c0.9,0.9,2.3,1.1,3.6,1.1c1.5,0,2.9-0.3,3.7-1.1c0.5-0.5,0.8-1,0.8-2c0-1.6-1.2-2.3-2.5-2.5c-1.4-0.3-3.3-0.3-4.7-0.6
		c-2.9-0.5-5.4-2.4-5.4-5.9c0-1.7,0.8-3.1,1.9-4.2c1.4-1.4,3.8-2.2,6.2-2.2c2.3,0,4.5,0.7,5.9,2.1c1.3,1.2,2.1,2.8,2.2,4.5h-4
		c0-0.8-0.4-1.6-0.9-2.1c-0.7-0.7-2.1-1.1-3.2-1.1c-1.2,0-2.6,0.3-3.4,1.2c-0.5,0.5-0.7,1-0.7,1.8c0,1.4,0.9,2.1,2.2,2.3
		c1.3,0.2,3.2,0.4,4.6,0.5c3.2,0.5,5.8,2.5,5.8,6.1C300,27.5,299.3,28.9,298.2,29.9z"/>
	<path class="st0" d="M311.5,14.2v17.7h-3.9V14.2h-6.3v-3.6h16.5v3.6H311.5z"/>
	<path class="st0" d="M321.2,31.8V10.6h15.1v3.5h-11.3V19h9.9v3.5h-9.9v5.8h11.3v3.5H321.2z"/>
	<path class="st0" d="M352.9,31.8l-3.5-8h-4.7v8h-3.9V10.6h9c5.1,0,7.4,3.2,7.4,6.6c0,2.8-1.6,5.1-3.9,6l3.9,8.7H352.9z M349.8,13.9
		h-5.1v6.4h5.2c2.2,0,3.5-1.1,3.5-3.1C353.3,15.4,351.9,13.9,349.8,13.9z"/>
	<path class="st0" d="M173.2,66.2l-1.4-4.1h-8.5l-1.4,4.1h-3.9l7.5-21.3h4.2l7.5,21.3H173.2z M167.6,49.7l-3,9h6.1L167.6,49.7z"/>
	<path class="st0" d="M192.6,66.2l-3.5-8h-4.7v8h-3.9V44.9h9c5.1,0,7.4,3.2,7.4,6.6c0,2.8-1.6,5.1-3.9,6l3.9,8.7H192.6z M189.5,48.3
		h-5.1v6.4h5.2c2.2,0,3.5-1.1,3.5-3.1C193,49.8,191.7,48.3,189.5,48.3z"/>
	<path class="st0" d="M208.6,48.5v17.7h-3.9V48.5h-6.3v-3.6h16.5v3.6H208.6z"/>
	<path class="st0" d="M234,58.5V66h-3.4v-7.5h-6.8v-3.2h6.8v-7h3.4v7h6.8v3.2H234z"/>
	<path class="st0" d="M265.3,66.2v-9.3h-8.7v9.3h-3.9V44.9h3.9v8.3h8.7v-8.3h3.9v21.3H265.3z"/>
	<path class="st0" d="M288.6,64.2c-1.6,1.6-3.8,2.4-6.1,2.4c-2.3,0-4.5-0.8-6.1-2.4c-2.3-2.3-2.7-5.1-2.7-8.6c0-3.5,0.4-6.3,2.7-8.6
		c1.6-1.6,3.8-2.4,6.1-2.4c2.3,0,4.5,0.8,6.1,2.4c2.3,2.3,2.7,5.2,2.7,8.6C291.3,59,290.9,61.9,288.6,64.2z M285.9,49.4
		c-0.8-0.9-2.1-1.4-3.4-1.4c-1.2,0-2.5,0.5-3.4,1.4c-1.5,1.5-1.5,4.2-1.5,6.1c0,1.9,0.1,4.6,1.5,6.1c0.8,0.9,2.1,1.4,3.4,1.4
		c1.2,0,2.5-0.5,3.4-1.4c1.5-1.5,1.5-4.1,1.5-6.1C287.4,53.6,287.3,51,285.9,49.4z"/>
	<path class="st0" d="M303.6,66.6c-5.5,0-8.3-3.5-8.3-8.5V44.9h3.9V58c0,3,1.4,5.1,4.5,5.1S308,61,308,58V44.9h3.9V58
		C311.9,63.1,309,66.6,303.6,66.6z"/>
	<path class="st0" d="M330.7,64.3c-1.6,1.6-4.1,2.3-6.7,2.3c-2.2,0-4.6-0.6-6.4-2.2c-1.3-1.1-2.2-2.9-2.2-5h4c0,1,0.5,2,1.1,2.6
		c0.9,0.9,2.3,1.1,3.6,1.1c1.5,0,2.9-0.3,3.7-1.1c0.5-0.5,0.8-1,0.8-2c0-1.6-1.2-2.3-2.5-2.5c-1.4-0.3-3.3-0.3-4.7-0.6
		c-2.9-0.5-5.4-2.4-5.4-5.9c0-1.7,0.8-3.1,1.9-4.2c1.4-1.4,3.8-2.2,6.2-2.2c2.3,0,4.5,0.7,5.9,2.1c1.3,1.2,2.1,2.8,2.2,4.5h-4
		c0-0.8-0.4-1.6-0.9-2.1c-0.7-0.7-2.1-1.1-3.2-1.1c-1.2,0-2.6,0.3-3.5,1.2c-0.4,0.5-0.7,1-0.7,1.8c0,1.4,0.9,2.1,2.2,2.3
		c1.4,0.2,3.2,0.4,4.6,0.5c3.2,0.5,5.8,2.5,5.8,6.1C332.5,61.8,331.8,63.2,330.7,64.3z"/>
	<path class="st0" d="M336.7,66.2V44.9h3.9v21.3H336.7z"/>
	<path class="st0" d="M359.4,66.2l-9.2-14.6v14.6h-3.8V44.9h4.1l9.1,14.4V44.9h3.8v21.3H359.4z"/>
	<path class="st0" d="M382.8,66.2l-0.5-2.3c-0.6,1.2-2.7,2.7-5.3,2.7c-2.5,0-4.6-0.6-6.3-2.4c-2.2-2.3-2.8-5.2-2.8-8.6
		c0-3.5,0.5-6.2,2.8-8.6c1.6-1.6,4-2.5,6.3-2.5c2.6,0,4.9,1,6.3,2.4c1,1.1,1.8,2.4,1.9,4.3h-4c-0.1-0.8-0.5-1.4-0.9-2
		c-0.8-0.9-1.9-1.3-3.4-1.3c-1.2,0-2.6,0.5-3.5,1.4c-1.5,1.5-1.6,4.2-1.6,6.1c0,1.9,0.2,4.7,1.7,6.2c0.8,0.9,2.2,1.4,3.5,1.4
		c1.4,0,2.5-0.5,3.2-1.2c1.1-1.2,1.4-2.5,1.4-4.1h-5.1v-3.2h8.8v11.6H382.8z"/>
	<path class="st0" d="M174,98.4c-1.6,1.6-3.8,2.5-6.1,2.5c-2.3,0-4.4-0.8-6-2.4c-2.3-2.3-2.6-5.2-2.6-8.6c0-3.5,0.3-6.3,2.6-8.6
		c1.6-1.6,3.8-2.4,6-2.4c2.3,0,4.5,0.8,6.1,2.5c1.2,1.3,1.9,2.9,2,4.6h-4c-0.1-0.9-0.4-1.6-1-2.2c-0.7-0.9-1.9-1.3-3.2-1.3
		c-1.2,0-2.4,0.5-3.3,1.4c-1.5,1.5-1.5,4.2-1.5,6.1c0,1.9,0,4.6,1.5,6.1c0.8,0.9,2,1.4,3.3,1.4c1.3,0,2.5-0.5,3.2-1.3
		c0.5-0.7,0.9-1.4,1-2.3h4C175.9,95.4,175.3,97.2,174,98.4z"/>
	<path class="st0" d="M193.9,98.5c-1.6,1.6-3.8,2.4-6.1,2.4c-2.3,0-4.5-0.8-6.1-2.4c-2.3-2.3-2.7-5.1-2.7-8.6c0-3.5,0.4-6.3,2.7-8.6
		c1.6-1.6,3.8-2.4,6.1-2.4c2.3,0,4.5,0.8,6.1,2.4c2.3,2.3,2.7,5.2,2.7,8.6C196.6,93.4,196.2,96.2,193.9,98.5z M191.1,83.8
		c-0.8-0.9-2.1-1.4-3.4-1.4c-1.2,0-2.5,0.5-3.4,1.4c-1.5,1.5-1.5,4.2-1.5,6.1c0,1.9,0.1,4.6,1.5,6.1c0.8,0.9,2.1,1.4,3.4,1.4
		c1.2,0,2.5-0.5,3.4-1.4c1.5-1.5,1.5-4.1,1.5-6.1C192.6,88,192.6,85.3,191.1,83.8z"/>
	<path class="st0" d="M201.1,100.5V79.3h3.9v17.6h9.9v3.7H201.1z"/>
	<path class="st0" d="M217.6,100.5V79.3h3.9v17.6h9.9v3.7H217.6z"/>
	<path class="st0" d="M247.5,100.5l-1.4-4.1h-8.5l-1.4,4.1h-3.9l7.5-21.3h4.2l7.5,21.3H247.5z M241.8,84l-3,9h6.1L241.8,84z"/>
	<path class="st0" d="M268.9,99.1c-1.7,1.3-3.6,1.4-5.7,1.4h-8.5V79.3h8.5c1.7,0,3.5,0.2,4.9,1.2c1.6,1,2.5,2.8,2.5,4.6
		c0,1.7-0.8,3.7-2.6,4.5c2,0.9,3.1,2.8,3.1,4.8C271,96.3,270.4,98,268.9,99.1z M263.4,82.6h-4.8v5.3h4.9c1.7,0,3.2-0.6,3.2-2.6
		C266.7,83.3,265.1,82.6,263.4,82.6z M263.5,91.2h-4.9v5.9h4.8c1.8,0,3.8-0.7,3.8-2.8C267.1,92,265.5,91.2,263.5,91.2z"/>
	<path class="st0" d="M289.1,98.5c-1.6,1.6-3.8,2.4-6.1,2.4s-4.5-0.8-6.1-2.4c-2.3-2.3-2.7-5.1-2.7-8.6c0-3.5,0.4-6.3,2.7-8.6
		c1.6-1.6,3.8-2.4,6.1-2.4s4.5,0.8,6.1,2.4c2.3,2.3,2.7,5.2,2.7,8.6C291.8,93.4,291.4,96.2,289.1,98.5z M286.4,83.8
		c-0.8-0.9-2.1-1.4-3.4-1.4s-2.5,0.5-3.4,1.4c-1.5,1.5-1.5,4.2-1.5,6.1c0,1.9,0.1,4.6,1.5,6.1c0.8,0.9,2.1,1.4,3.4,1.4
		s2.5-0.5,3.4-1.4c1.5-1.5,1.5-4.1,1.5-6.1C287.9,88,287.8,85.3,286.4,83.8z"/>
	<path class="st0" d="M308.5,100.5l-3.5-8h-4.7v8h-3.9V79.3h9c5.1,0,7.4,3.2,7.4,6.6c0,2.8-1.6,5.1-3.9,6l3.9,8.7H308.5z
		 M305.3,82.7h-5.1V89h5.2c2.2,0,3.5-1.1,3.5-3.1C308.8,84.2,307.5,82.7,305.3,82.7z"/>
	<path class="st0" d="M329.5,100.5l-1.4-4.1h-8.5l-1.4,4.1h-3.9l7.5-21.3h4.2l7.5,21.3H329.5z M323.9,84l-3,9h6.1L323.9,84z"/>
	<path class="st0" d="M342.5,82.9v17.7h-3.9V82.9h-6.3v-3.6h16.5v3.6H342.5z"/>
	<path class="st0" d="M352.2,100.5V79.3h3.9v21.3H352.2z"/>
	<path class="st0" d="M370.7,100.5h-4.3l-7-21.3h4.1l5.2,16.2l5.1-16.2h3.9L370.7,100.5z"/>
	<path class="st0" d="M381,100.5V79.3h15.1v3.5h-11.3v4.9h9.9v3.5h-9.9V97h11.3v3.5H381z"/>
</g>
<g>
	<polygon class="st0" points="101.6,105.1 76.5,105.1 76.5,54.2 48,54.2 48,105.1 22.9,105.1 22.9,99.8 42.7,99.8 42.7,48.9 
		81.8,48.9 81.8,99.8 101.6,99.8 	"/>
</g>
</svg>
