<?xml version="1.0" encoding="utf-8"?>
<!-- Generator: Adobe Illustrator 19.1.0, SVG Export Plug-In . SVG Version: 6.00 Build 0)  -->
<!DOCTYPE svg PUBLIC "-//W3C//DTD SVG 1.1//EN" "http://www.w3.org/Graphics/SVG/1.1/DTD/svg11.dtd">
<svg version="1.1" id="Layer_1" xmlns="http://www.w3.org/2000/svg" xmlns:xlink="http://www.w3.org/1999/xlink" x="0px" y="0px"
	 viewBox="0 0 124.9 110.7" style="enable-background:new 0 0 124.9 110.7;" xml:space="preserve">
<style type="text/css">
	.st0{fill:#FFFFFF;}
</style>
<g>
	<g>
		<path class="st0" d="M62.6,17.3c-4,0-5.9-2.7-5.9-6.5V0h2.1v10.8c0,2.6,1,4.5,3.8,4.5c2.8,0,3.8-1.9,3.8-4.5V0h2.1v10.8
			C68.5,14.7,66.6,17.3,62.6,17.3z"/>
	</g>
	<g>
		<path class="st0" d="M10.3,15.5c-1,1-2.6,1.5-4.3,1.5H0.3V0H6c1.6,0,3.1,0.5,4.1,1.5c0.6,0.7,1.1,1.7,1.1,2.9
			c0,1.6-0.9,3.2-2.4,3.8c1.8,0.6,2.8,2.3,2.8,4.1C11.6,13.6,11.1,14.7,10.3,15.5z M5.9,1.9H2.4v5.3H6c1.8,0,3-0.8,3-2.7
			C9,2.8,7.6,1.9,5.9,1.9z M6,9.1H2.4V15H6c1.9,0,3.3-0.8,3.3-2.9C9.4,10.2,7.9,9.1,6,9.1z"/>
	</g>
	<g>
		<path class="st0" d="M113.7,17v-1.8h3.8V1.8h-3.8V0h9.7v1.8h-3.8v13.5h3.8V17H113.7z"/>
	</g>
	<g>
		<path class="st0" d="M0.3,63.8v-17h11.3v2H2.5V54h6.9v2H2.5v5.9h9.1v2H0.3z"/>
	</g>
	<g>
		<path class="st0" d="M113.7,63.8v-17h2.1v15h8.8v2H113.7z"/>
	</g>
	<g>
		<path class="st0" d="M9.4,110.6l-3.2-7.1H2.3v7.1H0.2v-17H6c2,0,3.4,0.6,4.3,1.5c0.8,0.9,1.3,2,1.3,3.5s-0.5,2.5-1.3,3.4
			c-0.5,0.5-1.2,0.9-2,1.2l3.4,7.5H9.4z M6,95.5H2.3v6H6c2,0,3.5-0.8,3.5-3S8,95.5,6,95.5z"/>
	</g>
	<g>
		<path class="st0" d="M123.9,108.1c-1,1.6-2.8,2.6-5.4,2.6h-5.1v-17h5.1c2.7,0,4.5,1.1,5.4,2.6c1,1.5,1.2,3.5,1.2,5.8
			C125,104.4,124.8,106.6,123.9,108.1z M121.6,96.8c-0.6-0.7-1.7-1.1-3.1-1.1h-2.9v13.1h2.9c1.5,0,2.6-0.5,3.2-1.2
			c1.1-1.2,1.2-3.3,1.2-5.4C122.8,99.9,122.7,98,121.6,96.8z"/>
	</g>
</g>
<g>
	<g>
		<rect x="43.1" y="68.1" class="st0" width="5.3" height="34.5"/>
	</g>
	<g>
		<rect x="62.6" y="82.7" class="st0" width="33.8" height="5.3"/>
	</g>
	<g>
		<rect x="76.8" y="34.1" class="st0" width="5.3" height="34"/>
	</g>
	<g>
		<rect x="28.8" y="48.7" class="st0" width="33.8" height="5.3"/>
	</g>
</g>
</svg>
