<?xml version="1.0" encoding="utf-8"?>
<!-- Generator: Adobe Illustrator 19.1.0, SVG Export Plug-In . SVG Version: 6.00 Build 0)  -->
<!DOCTYPE svg PUBLIC "-//W3C//DTD SVG 1.1//EN" "http://www.w3.org/Graphics/SVG/1.1/DTD/svg11.dtd">
<svg version="1.1" id="Layer_1" xmlns="http://www.w3.org/2000/svg" xmlns:xlink="http://www.w3.org/1999/xlink" x="0px" y="0px"
	 viewBox="-459 467.3 124.9 110.7" style="enable-background:new -459 467.3 124.9 110.7;" xml:space="preserve">
<g>
	<g>
		<path d="M-396.6,484.6c-4,0-5.9-2.7-5.9-6.5v-10.8h2.1v10.8c0,2.6,1,4.5,3.8,4.5c2.8,0,3.8-1.9,3.8-4.5v-10.8h2.1v10.8
			C-390.6,482-392.6,484.6-396.6,484.6z"/>
	</g>
	<g>
		<path d="M-448.9,482.8c-1,1-2.6,1.5-4.3,1.5h-5.6v-17h5.7c1.6,0,3.1,0.5,4.1,1.5c0.6,0.7,1,1.7,1,2.9c0,1.6-0.9,3.2-2.4,3.8
			c1.8,0.6,2.8,2.3,2.8,4.1C-447.6,480.9-448.1,482-448.9,482.8z M-453.2,469.2h-3.5v5.3h3.6c1.8,0,3-0.8,3-2.7
			C-450.2,470.1-451.6,469.2-453.2,469.2z M-453.1,476.4h-3.6v5.9h3.6c1.9,0,3.3-0.8,3.3-2.9C-449.8,477.5-451.3,476.4-453.1,476.4z
			"/>
	</g>
	<g>
		<path d="M-345.4,484.3v-1.8h3.8v-13.4h-3.8v-1.8h9.7v1.8h-3.8v13.5h3.8v1.7H-345.4z"/>
	</g>
	<g>
		<path d="M-458.8,531.1v-17h11.3v2h-9.2v5.2h6.9v2h-6.9v5.9h9.1v2h-11.2V531.1z"/>
	</g>
	<g>
		<path d="M-345.4,531.1v-17h2.1v15h8.8v2H-345.4z"/>
	</g>
	<g>
		<path d="M-449.8,577.9l-3.2-7.1h-3.9v7.1h-2.1v-17h5.8c2,0,3.4,0.6,4.3,1.5c0.8,0.9,1.3,2,1.3,3.5s-0.5,2.5-1.3,3.4
			c-0.5,0.5-1.2,0.9-2,1.2l3.4,7.5h-2.3V577.9z M-453.2,562.8h-3.7v6h3.7c2,0,3.5-0.8,3.5-3S-451.2,562.8-453.2,562.8z"/>
	</g>
	<g>
		<path d="M-335.3,575.4c-1,1.6-2.8,2.6-5.4,2.6h-5.1v-17h5.1c2.7,0,4.5,1.1,5.4,2.6c1,1.5,1.2,3.5,1.2,5.8
			C-334.1,571.7-334.4,573.9-335.3,575.4z M-337.6,564.1c-0.6-0.7-1.7-1.1-3.1-1.1h-2.9v13.1h2.9c1.5,0,2.6-0.5,3.2-1.2
			c1.1-1.2,1.2-3.3,1.2-5.4C-336.3,567.2-336.4,565.3-337.6,564.1z"/>
	</g>
</g>
<polygon points="-393.9,567 -393.9,501.6 -399.3,501.6 -399.3,567 -430.3,567 -430.3,572.3 -362.8,572.3 -362.8,567 "/>
</svg>
