<?xml version="1.0" encoding="utf-8"?>
<!-- Generator: Adobe Illustrator 19.1.0, SVG Export Plug-In . SVG Version: 6.00 Build 0)  -->
<svg version="1.1" id="Identity" xmlns="http://www.w3.org/2000/svg" xmlns:xlink="http://www.w3.org/1999/xlink" x="0px" y="0px"
	 viewBox="0 0 354.4 110.9" style="enable-background:new 0 0 354.4 110.9;" xml:space="preserve">
<style type="text/css">
	.st0{fill:#FFFFFF;}
</style>
<g>
	<g>
		<path class="st0" d="M62.4,17.4c-4,0-5.9-2.7-5.9-6.5V0.1h2.1V11c0,2.6,1,4.5,3.8,4.5c2.8,0,3.8-1.9,3.8-4.5V0.1h2.1v10.8
			C68.4,14.8,66.4,17.4,62.4,17.4z"/>
	</g>
	<g>
		<path class="st0" d="M10.1,15.6c-1,1-2.6,1.5-4.3,1.5H0.2v-17h5.7C7.5,0.1,9,0.6,10,1.6C10.6,2.3,11,3.3,11,4.5
			c0,1.6-0.9,3.2-2.4,3.8c1.8,0.6,2.8,2.3,2.8,4.1C11.4,13.7,10.9,14.8,10.1,15.6z M5.8,2H2.3v5.3h3.6c1.8,0,3-0.8,3-2.7
			C8.8,2.9,7.4,2,5.8,2z M5.9,9.2H2.3v5.9h3.6c1.9,0,3.3-0.8,3.3-2.9C9.2,10.4,7.7,9.2,5.9,9.2z"/>
	</g>
	<g>
		<path class="st0" d="M113.6,17.1v-1.8h3.8V1.9h-3.8V0.1h9.7v1.8h-3.8v13.5h3.8v1.8H113.6z"/>
	</g>
	<g>
		<path class="st0" d="M0.2,63.9v-17h11.3v2H2.3v5.2h6.9v2H2.3V62h9.1v2H0.2z"/>
	</g>
	<g>
		<path class="st0" d="M113.6,63.9v-17h2.1v15h8.8v2H113.6z"/>
	</g>
	<g>
		<path class="st0" d="M9.2,110.7L6,103.6H2.1v7.1H0v-17h5.8c2,0,3.4,0.6,4.3,1.5c0.8,0.9,1.3,2,1.3,3.5c0,1.5-0.5,2.5-1.3,3.4
			c-0.5,0.5-1.2,0.9-2,1.2l3.4,7.5H9.2z M5.8,95.7H2.1v6h3.7c2,0,3.5-0.8,3.5-3C9.3,96.5,7.8,95.7,5.8,95.7z"/>
	</g>
	<g>
		<path class="st0" d="M123.7,108.2c-1,1.6-2.8,2.6-5.4,2.6h-5.1v-17h5.1c2.7,0,4.5,1.1,5.4,2.6c1,1.5,1.2,3.5,1.2,5.8
			C124.9,104.6,124.6,106.7,123.7,108.2z M121.4,96.9c-0.6-0.7-1.7-1.1-3.1-1.1h-2.9v13.1h2.9c1.5,0,2.6-0.5,3.2-1.2
			c1.1-1.2,1.2-3.3,1.2-5.4C122.7,100.1,122.6,98.1,121.4,96.9z"/>
	</g>
</g>
<g>
	<g>
		<rect x="42.9" y="68.2" class="st0" width="5.3" height="34.5"/>
	</g>
	<g>
		<rect x="62.4" y="82.8" class="st0" width="33.8" height="5.3"/>
	</g>
	<g>
		<rect x="76.6" y="34.2" class="st0" width="5.3" height="34"/>
	</g>
	<g>
		<rect x="28.7" y="48.8" class="st0" width="33.8" height="5.3"/>
	</g>
</g>
<g>
	<path class="st0" d="M172.9,48.9l-3.5-8h-4.7v8h-3.9V27.6h9c5.1,0,7.4,3.2,7.4,6.6c0,2.8-1.6,5.1-3.9,6l3.9,8.7H172.9z M169.7,31
		h-5.1v6.4h5.2c2.2,0,3.5-1.1,3.5-3.1C173.2,32.5,171.9,31,169.7,31z"/>
	<path class="st0" d="M181.3,48.9V27.6h15.1v3.5h-11.3v4.9h9.9v3.5h-9.9v5.8h11.3v3.5H181.3z"/>
	<path class="st0" d="M215,47.5c-1.7,1.3-3.6,1.4-5.7,1.4h-8.5V27.6h8.5c1.7,0,3.5,0.2,4.9,1.2c1.6,1,2.5,2.8,2.5,4.6
		c0,1.7-0.8,3.7-2.6,4.5c2,0.9,3.1,2.8,3.1,4.8C217.1,44.6,216.5,46.3,215,47.5z M209.5,30.9h-4.8v5.3h4.9c1.7,0,3.2-0.6,3.2-2.6
		C212.7,31.6,211.2,30.9,209.5,30.9z M209.6,39.5h-4.9v5.9h4.8c1.8,0,3.8-0.7,3.8-2.8C213.2,40.3,211.6,39.5,209.6,39.5z"/>
	<path class="st0" d="M229.2,49.3c-5.5,0-8.3-3.5-8.3-8.5V27.6h3.9v13c0,3,1.4,5.1,4.5,5.1s4.5-2.1,4.5-5.1v-13h3.9v13.1
		C237.6,45.8,234.7,49.3,229.2,49.3z"/>
	<path class="st0" d="M242.7,48.9V27.6h3.9v21.3H242.7z"/>
	<path class="st0" d="M252.4,48.9V27.6h3.9v17.6h9.9v3.7H252.4z"/>
	<path class="st0" d="M283.9,46.6c-1.4,1.5-3.5,2.3-6,2.3h-8.3V27.6h8.3c2.4,0,4.6,0.8,6,2.3c2.2,2.3,2.5,5.4,2.5,8.3
		C286.4,41.2,286.1,44.4,283.9,46.6z M280.9,32.3c-0.7-0.7-1.8-1.2-3-1.2h-4.4v14.3h4.4c1.2,0,2.3-0.5,3-1.2c1.5-1.5,1.5-4,1.5-6
		S282.4,33.8,280.9,32.3z"/>
	<path class="st0" d="M164.6,65.5v5.7h9.7v3.5h-9.7v8.5h-3.9V62h14.7v3.5H164.6z"/>
	<path class="st0" d="M192.5,81.2c-1.6,1.6-3.8,2.4-6.1,2.4s-4.5-0.8-6.1-2.4c-2.3-2.3-2.7-5.1-2.7-8.6c0-3.5,0.4-6.3,2.7-8.6
		c1.6-1.6,3.8-2.4,6.1-2.4s4.5,0.8,6.1,2.4c2.3,2.3,2.7,5.2,2.7,8.6C195.2,76.1,194.8,78.9,192.5,81.2z M189.8,66.5
		c-0.8-0.9-2.1-1.4-3.4-1.4s-2.5,0.5-3.4,1.4c-1.5,1.5-1.5,4.2-1.5,6.1c0,1.9,0.1,4.6,1.5,6.1c0.8,0.9,2.1,1.4,3.4,1.4
		s2.5-0.5,3.4-1.4c1.5-1.5,1.5-4.1,1.5-6.1C191.3,70.7,191.2,68,189.8,66.5z"/>
	<path class="st0" d="M207.5,83.6c-5.5,0-8.3-3.5-8.3-8.5V62h3.9v13c0,3,1.4,5.1,4.5,5.1s4.5-2.1,4.5-5.1V62h3.9v13.1
		C215.8,80.2,213,83.6,207.5,83.6z"/>
	<path class="st0" d="M234,83.2l-9.2-14.6v14.6h-3.8V62h4.1l9.1,14.4V62h3.8v21.3H234z"/>
	<path class="st0" d="M257.9,81c-1.4,1.5-3.5,2.3-6,2.3h-8.3V62h8.3c2.4,0,4.6,0.8,6,2.3c2.2,2.2,2.5,5.4,2.5,8.3
		C260.4,75.5,260.1,78.7,257.9,81z M255,66.7c-0.7-0.7-1.8-1.2-3-1.2h-4.4v14.3h4.4c1.2,0,2.3-0.5,3-1.2c1.5-1.5,1.5-4,1.5-6
		S256.5,68.2,255,66.7z"/>
	<path class="st0" d="M277.3,83.2l-1.4-4.1h-8.5l-1.4,4.1h-3.9l7.5-21.3h4.2l7.5,21.3H277.3z M271.7,66.7l-3,9h6.1L271.7,66.7z"/>
	<path class="st0" d="M290.3,65.6v17.7h-3.9V65.6h-6.3V62h16.5v3.6H290.3z"/>
	<path class="st0" d="M300.1,83.2V62h3.9v21.3H300.1z"/>
	<path class="st0" d="M323.4,81.2c-1.6,1.6-3.8,2.4-6.1,2.4c-2.3,0-4.5-0.8-6.1-2.4c-2.3-2.3-2.7-5.1-2.7-8.6c0-3.5,0.4-6.3,2.7-8.6
		c1.6-1.6,3.8-2.4,6.1-2.4c2.3,0,4.5,0.8,6.1,2.4c2.3,2.3,2.7,5.2,2.7,8.6C326.1,76.1,325.7,78.9,323.4,81.2z M320.7,66.5
		c-0.8-0.9-2.1-1.4-3.4-1.4c-1.2,0-2.5,0.5-3.4,1.4c-1.5,1.5-1.5,4.2-1.5,6.1c0,1.9,0.1,4.6,1.5,6.1c0.8,0.9,2.1,1.4,3.4,1.4
		c1.2,0,2.5-0.5,3.4-1.4c1.5-1.5,1.5-4.1,1.5-6.1C322.2,70.7,322.1,68,320.7,66.5z"/>
	<path class="st0" d="M343.6,83.2l-9.2-14.6v14.6h-3.8V62h4.1l9.1,14.4V62h3.8v21.3H343.6z"/>
</g>
</svg>
