<?xml version="1.0" encoding="utf-8"?>
<!-- Generator: Adobe Illustrator 19.1.0, SVG Export Plug-In . SVG Version: 6.00 Build 0)  -->
<!DOCTYPE svg PUBLIC "-//W3C//DTD SVG 1.1//EN" "http://www.w3.org/Graphics/SVG/1.1/DTD/svg11.dtd">
<svg version="1.1" id="Layer_1" xmlns="http://www.w3.org/2000/svg" xmlns:xlink="http://www.w3.org/1999/xlink" x="0px" y="0px"
	 viewBox="0 0 124.9 110.7" style="enable-background:new 0 0 124.9 110.7;" xml:space="preserve">
<style type="text/css">
	.st0{fill:#FFFFFF;}
</style>
<g>
	<g>
		<path class="st0" d="M62.4,17.3c-4,0-5.9-2.7-5.9-6.5V0h2.1v10.8c0,2.6,1,4.5,3.8,4.5c2.8,0,3.8-1.9,3.8-4.5V0h2.1v10.8
			C68.4,14.7,66.4,17.3,62.4,17.3z"/>
	</g>
	<g>
		<path class="st0" d="M10.1,15.5c-1,1-2.6,1.5-4.3,1.5H0.2V0h5.7C7.5,0,9,0.5,10,1.5C10.6,2.2,11,3.2,11,4.4c0,1.6-0.9,3.2-2.4,3.8
			c1.8,0.6,2.8,2.3,2.8,4.1C11.4,13.6,10.9,14.7,10.1,15.5z M5.8,1.9H2.3v5.3h3.6c1.8,0,3-0.8,3-2.7C8.8,2.8,7.4,1.9,5.8,1.9z
			 M5.9,9.1H2.3V15h3.6c1.9,0,3.3-0.8,3.3-2.9C9.2,10.2,7.7,9.1,5.9,9.1z"/>
	</g>
	<g>
		<path class="st0" d="M113.6,17v-1.8h3.8V1.8h-3.8V0h9.7v1.8h-3.8v13.5h3.8V17H113.6z"/>
	</g>
	<g>
		<path class="st0" d="M0.2,63.8v-17h11.3v2H2.3V54h6.9v2H2.3v5.9h9.1v2H0.2z"/>
	</g>
	<g>
		<path class="st0" d="M113.6,63.8v-17h2.1v15h8.8v2H113.6z"/>
	</g>
	<g>
		<path class="st0" d="M9.2,110.6L6,103.5H2.1v7.1H0v-17h5.8c2,0,3.4,0.6,4.3,1.5c0.8,0.9,1.3,2,1.3,3.5s-0.5,2.5-1.3,3.4
			c-0.5,0.5-1.2,0.9-2,1.2l3.4,7.5H9.2z M5.8,95.5H2.1v6h3.7c2,0,3.5-0.8,3.5-3S7.8,95.5,5.8,95.5z"/>
	</g>
	<g>
		<path class="st0" d="M123.7,108.1c-1,1.6-2.8,2.6-5.4,2.6h-5.1v-17h5.1c2.7,0,4.5,1.1,5.4,2.6c1,1.5,1.2,3.5,1.2,5.8
			C124.9,104.4,124.6,106.6,123.7,108.1z M121.4,96.8c-0.6-0.7-1.7-1.1-3.1-1.1h-2.9v13.1h2.9c1.5,0,2.6-0.5,3.2-1.2
			c1.1-1.2,1.2-3.3,1.2-5.4C122.7,99.9,122.6,98,121.4,96.8z"/>
	</g>
</g>
<g>
	<rect x="23" y="99.8" class="st0" width="78.8" height="5.3"/>
</g>
<g>
	<rect x="23" y="48.6" class="st0" width="78.8" height="5.3"/>
</g>
</svg>
