<?xml version="1.0" encoding="utf-8"?>
<!-- Generator: Adobe Illustrator 19.1.0, SVG Export Plug-In . SVG Version: 6.00 Build 0)  -->
<svg version="1.1" id="Identity" xmlns="http://www.w3.org/2000/svg" xmlns:xlink="http://www.w3.org/1999/xlink" x="0px" y="0px"
	 viewBox="0 0 285.8 110.9" style="enable-background:new 0 0 285.8 110.9;" xml:space="preserve">
<style type="text/css">
	.st0{fill:#FFFFFF;}
</style>
<g>
	<g>
		<path class="st0" d="M62.4,17.4c-4,0-5.9-2.7-5.9-6.5V0.1h2.1V11c0,2.6,1,4.5,3.8,4.5c2.8,0,3.8-1.9,3.8-4.5V0.1h2.1v10.8
			C68.4,14.8,66.4,17.4,62.4,17.4z"/>
	</g>
	<g>
		<path class="st0" d="M10.1,15.6c-1,1-2.6,1.5-4.3,1.5H0.2v-17h5.7C7.5,0.1,9,0.6,10,1.6C10.6,2.3,11,3.3,11,4.5
			c0,1.6-0.9,3.2-2.4,3.8c1.8,0.6,2.8,2.3,2.8,4.1C11.4,13.7,10.9,14.8,10.1,15.6z M5.8,2H2.3v5.3h3.6c1.8,0,3-0.8,3-2.7
			C8.8,2.9,7.4,2,5.8,2z M5.9,9.2H2.3v5.9h3.6c1.9,0,3.3-0.8,3.3-2.9C9.2,10.4,7.7,9.2,5.9,9.2z"/>
	</g>
	<g>
		<path class="st0" d="M113.6,17.1v-1.8h3.8V1.9h-3.8V0.1h9.7v1.8h-3.8v13.5h3.8v1.8H113.6z"/>
	</g>
	<g>
		<path class="st0" d="M0.2,63.9v-17h11.3v2H2.3v5.2h6.9v2H2.3V62h9.1v2H0.2z"/>
	</g>
	<g>
		<path class="st0" d="M113.6,63.9v-17h2.1v15h8.8v2H113.6z"/>
	</g>
	<g>
		<path class="st0" d="M9.2,110.7L6,103.6H2.1v7.1H0v-17h5.8c2,0,3.4,0.6,4.3,1.5c0.8,0.9,1.3,2,1.3,3.5c0,1.5-0.5,2.5-1.3,3.4
			c-0.5,0.5-1.2,0.9-2,1.2l3.4,7.5H9.2z M5.8,95.7H2.1v6h3.7c2,0,3.5-0.8,3.5-3C9.3,96.5,7.8,95.7,5.8,95.7z"/>
	</g>
	<g>
		<path class="st0" d="M123.7,108.2c-1,1.6-2.8,2.6-5.4,2.6h-5.1v-17h5.1c2.7,0,4.5,1.1,5.4,2.6c1,1.5,1.2,3.5,1.2,5.8
			C124.9,104.6,124.6,106.7,123.7,108.2z M121.4,96.9c-0.6-0.7-1.7-1.1-3.1-1.1h-2.9v13.1h2.9c1.5,0,2.6-0.5,3.2-1.2
			c1.1-1.2,1.2-3.3,1.2-5.4C122.7,100.1,122.6,98.1,121.4,96.9z"/>
	</g>
</g>
<g>
	<path class="st0" d="M42.9,100.5h-6v-6h6V100.5z M42.9,85.5h-6v-6h6V85.5z M42.9,70.5h-6v-6h6V70.5z M42.9,55.5h-6v-6h6V55.5z
		 M42.9,40.5h-6v-6h6V40.5z"/>
</g>
<g>
	<path class="st0" d="M87.9,100.5h-6v-6h6V100.5z M87.9,85.5h-6v-6h6V85.5z M87.9,70.5h-6v-6h6V70.5z M87.9,55.5h-6v-6h6V55.5z
		 M87.9,40.5h-6v-6h6V40.5z"/>
</g>
<g>
	<path class="st0" d="M174.9,30.4c-1.6,1.3-3.6,1.4-5.7,1.4h-8.5V10.6h8.5c1.7,0,3.5,0.2,4.9,1.2c1.6,1,2.5,2.8,2.5,4.6
		c0,1.7-0.8,3.7-2.6,4.5c2,0.9,3.1,2.8,3.1,4.8C177,27.5,176.4,29.2,174.9,30.4z M169.3,13.9h-4.8v5.3h4.9c1.7,0,3.2-0.6,3.2-2.6
		C172.6,14.5,171.1,13.9,169.3,13.9z M169.5,22.5h-4.9v5.9h4.8c1.8,0,3.8-0.7,3.8-2.8C173.1,23.3,171.5,22.5,169.5,22.5z"/>
	<path class="st0" d="M181.4,31.8V10.6h3.9v17.6h9.9v3.7H181.4z"/>
	<path class="st0" d="M211.3,31.8l-1.4-4.1h-8.5l-1.4,4.1h-3.9l7.5-21.3h4.2l7.5,21.3H211.3z M205.7,15.3l-3,9h6.1L205.7,15.3z"/>
	<path class="st0" d="M231.6,29.7c-1.6,1.6-3.8,2.5-6.1,2.5c-2.3,0-4.4-0.8-6-2.4c-2.3-2.3-2.6-5.2-2.6-8.6c0-3.5,0.3-6.3,2.6-8.6
		c1.6-1.6,3.8-2.4,6-2.4c2.3,0,4.5,0.8,6.1,2.5c1.2,1.3,1.9,2.9,2,4.6h-4c-0.1-0.9-0.4-1.6-1-2.2c-0.7-0.9-1.9-1.3-3.2-1.3
		c-1.2,0-2.4,0.5-3.3,1.4c-1.5,1.5-1.5,4.2-1.5,6.1c0,1.9,0,4.6,1.5,6.1c0.8,0.9,2,1.4,3.3,1.4c1.3,0,2.5-0.5,3.2-1.3
		c0.5-0.7,0.9-1.4,1-2.3h4C233.4,26.7,232.8,28.4,231.6,29.7z"/>
	<path class="st0" d="M251,31.8l-5.8-10l-3.7,4.3v5.8h-3.9V10.6h3.9v9.8l8.5-9.8h4.7l-6.8,8l7.6,13.2H251z"/>
	<path class="st0" d="M174.2,64.1c-1.6,1.6-3.8,2.5-6.1,2.5c-2.3,0-4.4-0.8-6-2.4c-2.3-2.3-2.6-5.2-2.6-8.6c0-3.5,0.3-6.3,2.6-8.6
		c1.6-1.6,3.8-2.4,6-2.4c2.3,0,4.5,0.8,6.1,2.5c1.2,1.3,1.9,2.9,2,4.6h-4c-0.1-0.9-0.4-1.6-1-2.2c-0.7-0.9-1.9-1.3-3.2-1.3
		c-1.2,0-2.4,0.5-3.3,1.4c-1.5,1.5-1.5,4.2-1.5,6.1c0,1.9,0,4.6,1.5,6.1c0.8,0.9,2,1.4,3.3,1.4c1.3,0,2.5-0.5,3.2-1.3
		c0.5-0.7,0.9-1.4,1-2.3h4C176.1,61.1,175.4,62.8,174.2,64.1z"/>
	<path class="st0" d="M180.3,66.2V44.9h3.9v21.3H180.3z"/>
	<path class="st0" d="M203,66.2l-9.2-14.6v14.6H190V44.9h4.1l9.1,14.4V44.9h3.8v21.3H203z"/>
	<path class="st0" d="M212.7,66.2V44.9h15.1v3.5h-11.3v5h9.9v3.5h-9.9v5.8h11.3v3.5H212.7z"/>
	<path class="st0" d="M249.9,66.2V51l-5.5,14.9h-2.8l-5.5-15.1v15.4h-3.8V44.9h5.2l5.6,15.1l5.6-15.1h4.9v21.3H249.9z"/>
	<path class="st0" d="M272,66.2l-1.4-4.1h-8.5l-1.4,4.1h-3.9l7.5-21.3h4.2l7.5,21.3H272z M266.4,49.7l-3,9h6.1L266.4,49.7z"/>
	<path class="st0" d="M173.3,100.5v-9.3h-8.7v9.3h-3.9V79.3h3.9v8.3h8.7v-8.3h3.9v21.3H173.3z"/>
	<path class="st0" d="M196.6,98.5c-1.6,1.6-3.8,2.4-6.1,2.4s-4.5-0.8-6.1-2.4c-2.3-2.3-2.7-5.1-2.7-8.6c0-3.5,0.4-6.3,2.7-8.6
		c1.6-1.6,3.8-2.4,6.1-2.4s4.5,0.8,6.1,2.4c2.3,2.3,2.7,5.2,2.7,8.6C199.3,93.4,198.9,96.2,196.6,98.5z M193.9,83.8
		c-0.8-0.9-2.1-1.4-3.4-1.4s-2.5,0.5-3.4,1.4c-1.5,1.5-1.5,4.2-1.5,6.1c0,1.9,0.1,4.6,1.5,6.1c0.8,0.9,2.1,1.4,3.4,1.4
		s2.5-0.5,3.4-1.4c1.5-1.5,1.5-4.1,1.5-6.1C195.4,88,195.3,85.3,193.9,83.8z"/>
	<path class="st0" d="M211.6,100.9c-5.5,0-8.3-3.5-8.3-8.5V79.3h3.9v13c0,3,1.4,5.1,4.5,5.1s4.5-2.1,4.5-5.1v-13h3.9v13.1
		C219.9,97.5,217.1,100.9,211.6,100.9z"/>
	<path class="st0" d="M238.8,98.7c-1.6,1.6-4.1,2.3-6.7,2.3c-2.2,0-4.6-0.6-6.4-2.2c-1.3-1.1-2.2-2.9-2.2-5h4c0,1,0.5,2,1.1,2.6
		c0.9,0.9,2.3,1.1,3.6,1.1c1.5,0,2.9-0.3,3.7-1.1c0.5-0.5,0.8-1,0.8-2c0-1.6-1.2-2.3-2.5-2.5c-1.4-0.3-3.3-0.3-4.7-0.6
		c-2.9-0.5-5.4-2.4-5.4-5.9c0-1.7,0.8-3.1,1.9-4.2c1.4-1.4,3.8-2.2,6.2-2.2c2.3,0,4.5,0.7,5.9,2.1c1.3,1.2,2.1,2.8,2.2,4.5h-4
		c0-0.8-0.4-1.6-0.9-2.1c-0.7-0.7-2.1-1.1-3.2-1.1c-1.2,0-2.6,0.3-3.5,1.2c-0.5,0.5-0.7,1-0.7,1.8c0,1.4,0.9,2.1,2.2,2.3
		c1.3,0.2,3.2,0.4,4.6,0.5c3.2,0.5,5.8,2.5,5.8,6.1C240.5,96.2,239.8,97.6,238.8,98.7z"/>
	<path class="st0" d="M244.8,100.5V79.3h15.1v3.5h-11.3v4.9h9.9v3.5h-9.9V97h11.3v3.5H244.8z"/>
</g>
</svg>
