<?xml version="1.0" encoding="utf-8"?>
<!-- Generator: Adobe Illustrator 19.1.0, SVG Export Plug-In . SVG Version: 6.00 Build 0)  -->
<svg version="1.1" id="Identity" xmlns="http://www.w3.org/2000/svg" xmlns:xlink="http://www.w3.org/1999/xlink" x="0px" y="0px"
	 viewBox="0 0 294.4 110.9" style="enable-background:new 0 0 294.4 110.9;" xml:space="preserve">
<style type="text/css">
	.st0{fill:#FFFFFF;}
</style>
<g>
	<g>
		<path class="st0" d="M62.4,17.4c-4,0-5.9-2.7-5.9-6.5V0.1h2.1V11c0,2.6,1,4.5,3.8,4.5c2.8,0,3.8-1.9,3.8-4.5V0.1h2.1v10.8
			C68.4,14.8,66.4,17.4,62.4,17.4z"/>
	</g>
	<g>
		<path class="st0" d="M10.1,15.6c-1,1-2.6,1.5-4.3,1.5H0.2v-17h5.7C7.5,0.1,9,0.6,10,1.6C10.6,2.3,11,3.3,11,4.5
			c0,1.6-0.9,3.2-2.4,3.8c1.8,0.6,2.8,2.3,2.8,4.1C11.4,13.7,10.9,14.8,10.1,15.6z M5.8,2H2.3v5.3h3.6c1.8,0,3-0.8,3-2.7
			C8.8,2.9,7.4,2,5.8,2z M5.9,9.2H2.3v5.9h3.6c1.9,0,3.3-0.8,3.3-2.9C9.2,10.4,7.7,9.2,5.9,9.2z"/>
	</g>
	<g>
		<path class="st0" d="M113.6,17.1v-1.8h3.8V1.9h-3.8V0.1h9.7v1.8h-3.8v13.5h3.8v1.8H113.6z"/>
	</g>
	<g>
		<path class="st0" d="M0.2,63.9v-17h11.3v2H2.3v5.2h6.9v2H2.3V62h9.1v2H0.2z"/>
	</g>
	<g>
		<path class="st0" d="M113.6,63.9v-17h2.1v15h8.8v2H113.6z"/>
	</g>
	<g>
		<path class="st0" d="M9.2,110.7L6,103.6H2.1v7.1H0v-17h5.8c2,0,3.4,0.6,4.3,1.5c0.8,0.9,1.3,2,1.3,3.5c0,1.5-0.5,2.5-1.3,3.4
			c-0.5,0.5-1.2,0.9-2,1.2l3.4,7.5H9.2z M5.8,95.7H2.1v6h3.7c2,0,3.5-0.8,3.5-3C9.3,96.5,7.8,95.7,5.8,95.7z"/>
	</g>
	<g>
		<path class="st0" d="M123.7,108.2c-1,1.6-2.8,2.6-5.4,2.6h-5.1v-17h5.1c2.7,0,4.5,1.1,5.4,2.6c1,1.5,1.2,3.5,1.2,5.8
			C124.9,104.6,124.6,106.7,123.7,108.2z M121.4,96.9c-0.6-0.7-1.7-1.1-3.1-1.1h-2.9v13.1h2.9c1.5,0,2.6-0.5,3.2-1.2
			c1.1-1.2,1.2-3.3,1.2-5.4C122.7,100.1,122.6,98.1,121.4,96.9z"/>
	</g>
</g>
<g>
	<path class="st0" d="M173.4,48.9l-1.4-4.1h-8.5l-1.4,4.1h-3.9l7.5-21.3h4.2l7.5,21.3H173.4z M167.8,32.4l-3,9h6.1L167.8,32.4z"/>
	<path class="st0" d="M192.8,48.9l-3.5-8h-4.7v8h-3.9V27.6h9c5.1,0,7.4,3.2,7.4,6.6c0,2.8-1.6,5.1-3.9,6l3.9,8.7H192.8z M189.6,31
		h-5.1v6.4h5.2c2.2,0,3.5-1.1,3.5-3.1C193.1,32.5,191.8,31,189.6,31z"/>
	<path class="st0" d="M214.6,46.8c-1.6,1.6-3.8,2.5-6.1,2.5s-4.4-0.8-6-2.4c-2.3-2.3-2.6-5.2-2.6-8.6c0-3.5,0.3-6.3,2.6-8.6
		c1.6-1.6,3.8-2.4,6-2.4s4.5,0.8,6.1,2.5c1.2,1.3,1.9,2.9,2,4.6h-4c-0.1-0.9-0.4-1.6-1-2.2c-0.7-0.9-1.9-1.3-3.2-1.3
		c-1.2,0-2.4,0.5-3.3,1.4c-1.5,1.5-1.5,4.2-1.5,6.1c0,1.9,0,4.6,1.5,6.1c0.8,0.9,2,1.4,3.3,1.4c1.3,0,2.5-0.5,3.2-1.3
		c0.5-0.7,0.9-1.4,1-2.3h4C216.5,43.8,215.9,45.5,214.6,46.8z"/>
	<path class="st0" d="M233.4,48.9v-9.3h-8.7v9.3h-3.9V27.6h3.9v8.3h8.7v-8.3h3.9v21.3H233.4z"/>
	<path class="st0" d="M243,48.9V27.6h3.9v21.3H243z"/>
	<path class="st0" d="M261.4,48.9h-4.3l-7-21.3h4.1l5.2,16.2l5.1-16.2h3.9L261.4,48.9z"/>
	<path class="st0" d="M271.7,48.9V27.6h15.2v3.5h-11.3v4.9h9.9v3.5h-9.9v5.8h11.3v3.5H271.7z"/>
	<path class="st0" d="M173.3,83.2V74h-8.7v9.3h-3.9V62h3.9v8.3h8.7V62h3.9v21.3H173.3z"/>
	<path class="st0" d="M196.6,81.2c-1.6,1.6-3.8,2.4-6.1,2.4s-4.5-0.8-6.1-2.4c-2.3-2.3-2.7-5.1-2.7-8.6c0-3.5,0.4-6.3,2.7-8.6
		c1.6-1.6,3.8-2.4,6.1-2.4s4.5,0.8,6.1,2.4c2.3,2.3,2.7,5.2,2.7,8.6C199.3,76.1,198.9,78.9,196.6,81.2z M193.9,66.5
		c-0.8-0.9-2.1-1.4-3.4-1.4s-2.5,0.5-3.4,1.4c-1.5,1.5-1.5,4.2-1.5,6.1c0,1.9,0.1,4.6,1.5,6.1c0.8,0.9,2.1,1.4,3.4,1.4
		s2.5-0.5,3.4-1.4c1.5-1.5,1.5-4.1,1.5-6.1C195.4,70.7,195.3,68,193.9,66.5z"/>
	<path class="st0" d="M211.6,83.6c-5.5,0-8.3-3.5-8.3-8.5V62h3.9v13c0,3,1.4,5.1,4.5,5.1s4.5-2.1,4.5-5.1V62h3.9v13.1
		C219.9,80.2,217.1,83.6,211.6,83.6z"/>
	<path class="st0" d="M238.8,81.4c-1.6,1.6-4.1,2.3-6.7,2.3c-2.2,0-4.6-0.6-6.4-2.2c-1.3-1.1-2.2-2.9-2.2-5h4c0,1,0.5,2,1.1,2.6
		c0.9,0.9,2.3,1.1,3.6,1.1c1.5,0,2.9-0.3,3.7-1.1c0.5-0.5,0.8-1,0.8-2c0-1.6-1.2-2.3-2.5-2.5c-1.4-0.3-3.3-0.3-4.7-0.6
		c-2.9-0.5-5.4-2.4-5.4-5.9c0-1.7,0.8-3.1,1.9-4.2c1.4-1.4,3.8-2.2,6.2-2.2c2.3,0,4.5,0.7,5.9,2.1c1.3,1.2,2.1,2.8,2.2,4.5h-4
		c0-0.8-0.4-1.6-0.9-2.1c-0.7-0.7-2.1-1.1-3.2-1.1c-1.2,0-2.6,0.3-3.5,1.2c-0.5,0.5-0.7,1-0.7,1.8c0,1.4,0.9,2.1,2.2,2.3
		c1.3,0.2,3.2,0.4,4.6,0.5c3.2,0.5,5.8,2.5,5.8,6.1C240.5,78.9,239.8,80.3,238.8,81.4z"/>
	<path class="st0" d="M244.8,83.2V62h15.1v3.5h-11.3v5h9.9v3.5h-9.9v5.8h11.3v3.5H244.8z"/>
</g>
<polygon class="st0" points="65.1,99.8 65.1,34.5 59.7,34.5 59.7,99.8 28.7,99.8 28.7,105.2 96.2,105.2 96.2,99.8 "/>
</svg>
