<?xml version="1.0" encoding="utf-8"?>
<!-- Generator: Adobe Illustrator 19.1.0, SVG Export Plug-In . SVG Version: 6.00 Build 0)  -->
<svg version="1.1" id="Layer_1" xmlns="http://www.w3.org/2000/svg" xmlns:xlink="http://www.w3.org/1999/xlink" x="0px" y="0px"
	 viewBox="0 0 30 30" style="enable-background:new 0 0 30 30;" xml:space="preserve">
<path d="M15,1.8C7.7,1.8,1.8,7.7,1.8,15c0,7.3,5.9,13.2,13.2,13.2S28.2,22.3,28.2,15C28.2,7.7,22.3,1.8,15,1.8z M9.9,18.4
	c-1.9,0-3.4-1.5-3.4-3.4c0-1.9,1.5-3.4,3.4-3.4c1.9,0,3.4,1.5,3.4,3.4C13.2,16.9,11.7,18.4,9.9,18.4z M20.1,18.4
	c-1.9,0-3.4-1.5-3.4-3.4c0-1.9,1.5-3.4,3.4-3.4c1.9,0,3.4,1.5,3.4,3.4C23.5,16.9,22,18.4,20.1,18.4z"/>
</svg>
