<?xml version="1.0" encoding="utf-8"?>
<!-- Generator: Adobe Illustrator 19.1.0, SVG Export Plug-In . SVG Version: 6.00 Build 0)  -->
<svg version="1.1" id="Layer_1" xmlns="http://www.w3.org/2000/svg" xmlns:xlink="http://www.w3.org/1999/xlink" x="0px" y="0px"
	 viewBox="0 0 30 30" style="enable-background:new 0 0 30 30;" xml:space="preserve">
<path d="M15,1.8C7.7,1.8,1.8,7.7,1.8,15c0,7.3,5.9,13.2,13.2,13.2S28.2,22.3,28.2,15C28.2,7.7,22.3,1.8,15,1.8z M23.7,10.8
	c-0.1,0.1-0.4,0.5-0.8,0.9c-0.7,0.6-0.7,0.7-0.7,1.3c0,0.8-0.4,2.6-0.8,3.5c-0.7,1.8-2.3,3.6-3.9,4.5c-2.2,1.3-5.2,1.6-7.7,0.9
	c-0.8-0.3-2.3-0.9-2.3-1c0,0,0.4-0.1,1-0.1c1.1,0,2.2-0.3,3.1-0.9l0.6-0.4l-0.7-0.2c-1-0.3-1.9-1.2-2.2-1.9c-0.1-0.2,0-0.3,0.6-0.3
	l0.7,0l-0.6-0.3c-0.7-0.3-1.3-0.9-1.6-1.5c-0.2-0.4-0.5-1.5-0.4-1.6c0,0,0.3,0,0.5,0.1c0.8,0.3,0.9,0.2,0.4-0.3
	c-0.9-0.9-1.1-2.2-0.7-3.5l0.2-0.6l0.8,0.8c1.6,1.5,3.4,2.4,5.6,2.7l0.6,0.1l0-0.6c-0.1-1.5,0.8-2.8,2.3-3.4c0.5-0.2,1.4-0.2,2,0
	c0.2,0.1,0.7,0.3,1,0.5l0.6,0.4l0.6-0.2c0.4-0.1,0.8-0.3,1-0.4c0.2-0.1,0.4-0.2,0.4-0.1c0,0.2-0.4,0.9-0.8,1.2
	c-0.5,0.5-0.4,0.6,0.6,0.2C23.8,10.6,23.8,10.6,23.7,10.8z"/>
</svg>
