<?xml version="1.0" encoding="utf-8"?>
<!-- Generator: Adobe Illustrator 19.1.0, SVG Export Plug-In . SVG Version: 6.00 Build 0)  -->
<svg version="1.1" id="Layer_1" xmlns="http://www.w3.org/2000/svg" xmlns:xlink="http://www.w3.org/1999/xlink" x="0px" y="0px"
	 viewBox="0 0 30 30" style="enable-background:new 0 0 30 30;" xml:space="preserve">
<path d="M22.8,20.4c0,1.3-1.1,2.4-2.4,2.4H9.3c-1.3,0-2.4-1.1-2.4-2.4V9.4C6.9,8,8,6.9,9.3,6.9h11.1c1.3,0,2.4,1.1,2.4,2.4V20.4z
	 M15,1.8C7.7,1.8,1.8,7.7,1.8,15S7.7,28.2,15,28.2S28.2,22.3,28.2,15S22.3,1.8,15,1.8z M19.3,14.5c0,2.4-1.9,4.3-4.3,4.3
	s-4.3-1.9-4.3-4.3c0-0.5,0.1-1,0.2-1.4H8.9v5.8c0,1,0.8,1.8,1.8,1.8H19c1,0,1.8-0.8,1.8-1.8v-7.7h-3C18.7,12,19.3,13.2,19.3,14.5z
	 M19.7,10.3c0.6,0,1.2-0.5,1.2-1.2c0-0.6-0.5-1.2-1.2-1.2c-0.6,0-1.2,0.5-1.2,1.2C18.5,9.8,19,10.3,19.7,10.3z M15,16.6
	c1.2,0,2.1-1,2.1-2.1s-1-2.1-2.1-2.1c-1.2,0-2.1,1-2.1,2.1S13.8,16.6,15,16.6z"/>
</svg>
