<?xml version="1.0" encoding="utf-8"?>
<!-- Generator: Adobe Illustrator 19.1.0, SVG Export Plug-In . SVG Version: 6.00 Build 0)  -->
<svg version="1.1" id="Layer_1" xmlns="http://www.w3.org/2000/svg" xmlns:xlink="http://www.w3.org/1999/xlink" x="0px" y="0px"
	 viewBox="0 0 30 30" style="enable-background:new 0 0 30 30;" xml:space="preserve">
<path d="M15,1.8C7.7,1.8,1.8,7.7,1.8,15c0,7.3,5.9,13.2,13.2,13.2S28.2,22.3,28.2,15C28.2,7.7,22.3,1.8,15,1.8z M22.3,12.8
	c-0.2,0.9-0.5,1.8-0.9,2.7c-0.4,0.9-0.9,1.7-1.4,2.4c-0.5,0.7-1.1,1.4-1.7,2c-0.6,0.6-1.1,1.1-1.6,1.5c-0.4,0.4-0.8,0.7-1.2,0.9
	c-0.4,0.2-0.7,0.3-1,0.3s-0.6-0.1-0.9-0.3c-0.3-0.2-0.5-0.4-0.7-0.6c-0.2-0.2-0.4-0.5-0.5-0.7c-0.2-0.3-0.6-1.6-1.2-3.8
	c-0.7-2.2-1.1-3.4-1.2-3.6c0,0,0,0-0.1-0.1c0,0-0.1,0-0.2-0.1c-0.1,0-0.2,0-0.3,0c-0.1,0-0.3,0.1-0.5,0.2c-0.2,0.1-0.4,0.2-0.6,0.4
	l-0.6-0.8c0.5-0.6,0.9-1,1.4-1.5c0.5-0.4,0.9-0.8,1.2-1c0.3-0.2,0.7-0.4,0.9-0.6s0.5-0.2,0.6-0.3l0.2-0.1c0.1,0,0.2,0,0.3,0
	c0.2,0,0.3,0,0.4,0.1c0.2,0.1,0.4,0.2,0.5,0.4c0.1,0.2,0.3,0.4,0.4,0.7c0.1,0.3,0.2,0.6,0.3,0.9c0.1,0.4,0.1,0.7,0.2,1
	c0.1,0.3,0.1,0.6,0.2,1c0.1,0.4,0.1,0.7,0.2,0.9c0.3,1.1,0.5,1.8,0.7,2.3c0.2,0.4,0.3,0.7,0.5,0.7c0.2,0,0.5-0.2,0.9-0.7
	c0.4-0.5,0.8-1.1,1.2-1.9c0.2-0.4,0.3-0.8,0.3-1.2c0-0.1,0-0.2,0-0.3c-0.1-0.4-0.3-0.7-0.7-0.8c-0.1,0-0.2-0.1-0.3-0.1
	c-0.3,0-0.7,0.1-1.1,0.3c0.2-1.1,0.8-2,1.7-2.7c0.7-0.5,1.5-0.8,2.2-0.8c0.1,0,0.2,0,0.3,0c0.9,0.1,1.5,0.5,1.8,1.2
	c0.2,0.3,0.2,0.7,0.2,1.1C22.3,12.2,22.3,12.5,22.3,12.8z"/>
</svg>
